<mxfile host="65bd71144e">
    <diagram id="-8BgYAVyKX-YbtgXLEGC" name="ページ1">
        <mxGraphModel dx="572" dy="419" grid="1" gridSize="10" guides="1" tooltips="1" connect="1" arrows="1" fold="1" page="1" pageScale="1" pageWidth="827" pageHeight="1169" math="0" shadow="0">
            <root>
                <mxCell id="0"/>
                <mxCell id="1" parent="0"/>
                <mxCell id="2" value="analysis" style="rounded=1;whiteSpace=wrap;html=1;" parent="1" vertex="1">
                    <mxGeometry x="40" y="10" width="120" height="60" as="geometry"/>
                </mxCell>
                <mxCell id="S_xZIMuAMad-sYJi2GJx-2" value="学生" style="shape=umlActor;verticalLabelPosition=bottom;verticalAlign=top;html=1;" parent="1" vertex="1">
                    <mxGeometry x="40" y="230" width="60" height="120" as="geometry"/>
                </mxCell>
                <mxCell id="S_xZIMuAMad-sYJi2GJx-5" value="メニュー画面" style="shape=umlBoundary;whiteSpace=wrap;html=1;fontStyle=1" parent="1" vertex="1">
                    <mxGeometry x="200" y="140" width="100" height="80" as="geometry"/>
                </mxCell>
                <mxCell id="S_xZIMuAMad-sYJi2GJx-6" value="学生登録画面" style="shape=umlBoundary;whiteSpace=wrap;html=1;" parent="1" vertex="1">
                    <mxGeometry x="200" y="310" width="100" height="80" as="geometry"/>
                </mxCell>
                <mxCell id="S_xZIMuAMad-sYJi2GJx-9" value="" style="endArrow=classic;html=1;rounded=0;entryX=0.023;entryY=0.525;entryDx=0;entryDy=0;entryPerimeter=0;exitX=0.5;exitY=0.5;exitDx=0;exitDy=0;exitPerimeter=0;" parent="1" source="S_xZIMuAMad-sYJi2GJx-2" target="S_xZIMuAMad-sYJi2GJx-5" edge="1">
                    <mxGeometry width="50" height="50" relative="1" as="geometry">
                        <mxPoint x="100" y="290" as="sourcePoint"/>
                        <mxPoint x="150" y="240" as="targetPoint"/>
                    </mxGeometry>
                </mxCell>
                <mxCell id="S_xZIMuAMad-sYJi2GJx-10" value="①メニュー画面をクリックする" style="text;html=1;align=center;verticalAlign=middle;whiteSpace=wrap;rounded=0;" parent="1" vertex="1">
                    <mxGeometry x="70" y="150" width="90" height="30" as="geometry"/>
                </mxCell>
                <mxCell id="S_xZIMuAMad-sYJi2GJx-11" value="表示（する）" style="ellipse;shape=umlControl;whiteSpace=wrap;html=1;" parent="1" vertex="1">
                    <mxGeometry x="378" y="190" width="70" height="80" as="geometry"/>
                </mxCell>
                <mxCell id="S_xZIMuAMad-sYJi2GJx-12" value="" style="endArrow=classic;html=1;rounded=0;entryX=-0.011;entryY=0.62;entryDx=0;entryDy=0;entryPerimeter=0;exitX=0.972;exitY=0.574;exitDx=0;exitDy=0;exitPerimeter=0;" parent="1" source="S_xZIMuAMad-sYJi2GJx-5" target="S_xZIMuAMad-sYJi2GJx-11" edge="1">
                    <mxGeometry width="50" height="50" relative="1" as="geometry">
                        <mxPoint x="290" y="270" as="sourcePoint"/>
                        <mxPoint x="340" y="220" as="targetPoint"/>
                    </mxGeometry>
                </mxCell>
                <mxCell id="S_xZIMuAMad-sYJi2GJx-13" value="" style="endArrow=classic;html=1;rounded=0;entryX=1.012;entryY=0.419;entryDx=0;entryDy=0;entryPerimeter=0;exitX=0.101;exitY=0.812;exitDx=0;exitDy=0;exitPerimeter=0;" parent="1" source="S_xZIMuAMad-sYJi2GJx-11" target="S_xZIMuAMad-sYJi2GJx-6" edge="1">
                    <mxGeometry width="50" height="50" relative="1" as="geometry">
                        <mxPoint x="350" y="350" as="sourcePoint"/>
                        <mxPoint x="320" y="300" as="targetPoint"/>
                    </mxGeometry>
                </mxCell>
                <mxCell id="S_xZIMuAMad-sYJi2GJx-14" value="" style="endArrow=classic;html=1;rounded=0;exitX=0.5;exitY=0.5;exitDx=0;exitDy=0;exitPerimeter=0;entryX=0.008;entryY=0.525;entryDx=0;entryDy=0;entryPerimeter=0;" parent="1" source="S_xZIMuAMad-sYJi2GJx-2" target="S_xZIMuAMad-sYJi2GJx-6" edge="1">
                    <mxGeometry width="50" height="50" relative="1" as="geometry">
                        <mxPoint x="110" y="330" as="sourcePoint"/>
                        <mxPoint x="160" y="280" as="targetPoint"/>
                    </mxGeometry>
                </mxCell>
                <mxCell id="S_xZIMuAMad-sYJi2GJx-15" value="②学生情報を入力する" style="text;html=1;align=center;verticalAlign=middle;whiteSpace=wrap;rounded=0;" parent="1" vertex="1">
                    <mxGeometry x="120" y="350" width="80" height="30" as="geometry"/>
                </mxCell>
                <mxCell id="S_xZIMuAMad-sYJi2GJx-16" value="学生情報登録" style="ellipse;shape=umlControl;whiteSpace=wrap;html=1;" parent="1" vertex="1">
                    <mxGeometry x="413" y="340" width="80" height="90" as="geometry"/>
                </mxCell>
                <mxCell id="S_xZIMuAMad-sYJi2GJx-17" value="" style="endArrow=classic;html=1;rounded=0;entryX=0.024;entryY=0.58;entryDx=0;entryDy=0;entryPerimeter=0;exitX=1.029;exitY=0.517;exitDx=0;exitDy=0;exitPerimeter=0;" parent="1" source="S_xZIMuAMad-sYJi2GJx-6" target="S_xZIMuAMad-sYJi2GJx-16" edge="1">
                    <mxGeometry width="50" height="50" relative="1" as="geometry">
                        <mxPoint x="394" y="370" as="sourcePoint"/>
                        <mxPoint x="320" y="459" as="targetPoint"/>
                    </mxGeometry>
                </mxCell>
                <mxCell id="S_xZIMuAMad-sYJi2GJx-18" value="学生プロジェクト（データ）" style="ellipse;shape=umlEntity;whiteSpace=wrap;html=1;" parent="1" vertex="1">
                    <mxGeometry x="610" y="340" width="100" height="100" as="geometry"/>
                </mxCell>
                <mxCell id="S_xZIMuAMad-sYJi2GJx-19" value="" style="endArrow=classic;startArrow=classic;html=1;rounded=0;entryX=0.049;entryY=0.6;entryDx=0;entryDy=0;exitX=0.945;exitY=0.676;exitDx=0;exitDy=0;exitPerimeter=0;entryPerimeter=0;" parent="1" source="S_xZIMuAMad-sYJi2GJx-16" target="S_xZIMuAMad-sYJi2GJx-18" edge="1">
                    <mxGeometry width="50" height="50" relative="1" as="geometry">
                        <mxPoint x="430" y="540" as="sourcePoint"/>
                        <mxPoint x="480" y="490" as="targetPoint"/>
                    </mxGeometry>
                </mxCell>
                <mxCell id="S_xZIMuAMad-sYJi2GJx-20" value="・登録の成功、失敗&lt;div&gt;・すでに存在する学生かもしれない&lt;/div&gt;" style="text;html=1;align=left;verticalAlign=middle;whiteSpace=wrap;rounded=0;" parent="1" vertex="1">
                    <mxGeometry x="447" y="430" width="200" height="70" as="geometry"/>
                </mxCell>
                <mxCell id="S_xZIMuAMad-sYJi2GJx-21" value="&lt;b&gt;①境界オブジェクト&lt;/b&gt;&lt;div&gt;&lt;b&gt;②制御オブジェクト&lt;/b&gt;&lt;/div&gt;&lt;div&gt;&lt;b&gt;③実体オブジェクト&lt;/b&gt;&lt;/div&gt;" style="text;html=1;align=center;verticalAlign=middle;whiteSpace=wrap;rounded=0;" parent="1" vertex="1">
                    <mxGeometry x="40" y="440" width="160" height="80" as="geometry"/>
                </mxCell>
            </root>
        </mxGraphModel>
    </diagram>
</mxfile>